<?xml version="1.0" encoding="utf-8"?>
<!-- Generator: Adobe Illustrator 27.1.0, SVG Export Plug-In . SVG Version: 6.00 Build 0)  -->
<svg version="1.1" id="Capa_2_00000115488821149387266710000008854644034026959515_"
	 xmlns="http://www.w3.org/2000/svg" xmlns:xlink="http://www.w3.org/1999/xlink" x="0px" y="0px" viewBox="0 0 2180.9 1250.4"
	 style="enable-background:new 0 0 2180.9 1250.4;" xml:space="preserve">
<style type="text/css">
	.st0{fill-rule:evenodd;clip-rule:evenodd;fill:rgb(255,255,255);}
</style>
<g id="Capa_1-2">
	<path class="st0" d="M2.9,620l143-1c-68.1-12.6-124.3-91.4-140-159c-10.4-44.6-4-106-4-157V0c55,33,110,66,165,99v260
		c0,53.7-4,98.5,41,107c28.1,5.3,48.4-14.2,55-31c9.3-23.9,3-82.1,3-113c0-89.9-2.3-155.4,32-210c45.1-71.9,156.7-130.6,268-82
		c81.5,35.6,128.4,105.2,128,224c87,81.7,174,163.3,261,245c140-131.6,280-263.4,420-395c0.3,235.6,0.7,471.4,1,707v-2
		c108.7-234.3,217.3-468.7,326-703h1v2c159.3,343.3,318.7,686.7,478,1030h-188c-97-208.7-194-417.3-291-626v2
		c-96.7,208-193.3,416-290,624h-188v-1c0.3-219.6,0.7-439.4,1-659l-270,254l-12-12c-83-77.7-166-155.3-249-233v321
		c0,66.9,3.6,138.7-12,190c-31.9,104.8-100,182.4-195,224c-22.9,10-48.6,17.2-75,23c-42.3,9.4-101.2,5.6-139-4
		c-137.5-34.9-227.4-122.8-262-260c-10.4-41.1-8-93.4-8-144L2.9,620L2.9,620z M287.9,620v-1c85.2-23,143-91.9,143-194
		c4.1-130.2-17.6-234.4,41.1-238.7c62.7-4.6,56.9,83.3,56.9,97.7v336H287.9z M528.9,785c0.5,125.5,4.5,206.2-67,261
		c-17.8,13.7-40.3,25.8-64,33c-116.8,35.4-208.4-54.2-227-140c-9.1-41.7-2.4-107.6-2-154H528.9z"/>
</g>
</svg>
